<svg id="icons" xmlns="http://www.w3.org/2000/svg" xmlns:xlink="http://www.w3.org/1999/xlink" viewBox="0 0 48 48"><defs><linearGradient id="New_Gradient_Swatch_5" x1="24" y1="48" x2="24" gradientUnits="userSpaceOnUse"><stop offset="0" stop-color="#fd7d47"/><stop offset="1" stop-color="#ff5099"/></linearGradient></defs><title>user-member-people-mobile-phone-video-camera</title><g id="user-member-people-mobile-phone-video-camera"><rect x="4" y="38" width="15" height="8" fill="#ffc0a6"/><rect x="4" y="2" width="28" height="7" fill="#ffa6ca"/><path d="M6,11H30V28h4V4a4,4,0,0,0-4-4H6A4,4,0,0,0,2,4V44a4,4,0,0,0,4,4H19V44H6V40H19V36H6ZM30,4V7H6V4ZM18,19a3,3,0,1,1,3-3A3,3,0,0,1,18,19Zm-2,2h4a4,4,0,0,1,4,4v3H12V25A4,4,0,0,1,16,21ZM46,32l-5,4.67V34a2,2,0,0,0-2-2H25a2,2,0,0,0-2,2V46a2,2,0,0,0,2,2H39a2,2,0,0,0,2-2V42.67L46,48ZM37,44H27V36H37Z" fill="url(#New_Gradient_Swatch_5)"/></g></svg>