<svg id="icons" xmlns="http://www.w3.org/2000/svg" xmlns:xlink="http://www.w3.org/1999/xlink" viewBox="0 0 48 48"><defs><linearGradient id="New_Gradient_Swatch_5" x1="24" y1="48" x2="24" gradientUnits="userSpaceOnUse"><stop offset="0" stop-color="#fd7d47"/><stop offset="1" stop-color="#ff5099"/></linearGradient></defs><title>user-member-avatar-people-email-mail-envelope</title><g id="user-member-avatar-people-email-mail-envelope"><polygon points="46 47 22 47 22 30 34 38 46 30 46 47" fill="#ffc0a6"/><path d="M4,32H18v4H0V30A10,10,0,0,1,10,20H24a10,10,0,0,1,9.16,6h-4.7A6,6,0,0,0,24,24H10a6,6,0,0,0-6,6ZM8,9a9,9,0,1,1,9,9A9,9,0,0,1,8,9Zm4,0a5,5,0,1,0,5-5A5,5,0,0,0,12,9ZM48,28V48H20V28ZM28.61,32,34,35.6,39.39,32ZM44,44V33.74L34,40.4,24,33.74V44Z" fill="url(#New_Gradient_Swatch_5)"/></g></svg>