<svg id="icons" xmlns="http://www.w3.org/2000/svg" xmlns:xlink="http://www.w3.org/1999/xlink" viewBox="0 0 48 48"><defs><linearGradient id="New_Gradient_Swatch_5" x1="24" y1="48" x2="24" gradientUnits="userSpaceOnUse"><stop offset="0" stop-color="#fd7d47"/><stop offset="1" stop-color="#ff5099"/></linearGradient></defs><title>user-member-people-clipboard-id-card-identity</title><g id="user-member-people-clipboard-id-card-identity"><rect x="14" y="3" width="20" height="9" fill="#ffa6ca"/><path d="M39,5H36V2H29.83l-2-2H20.17l-2,2H12V5H9A4,4,0,0,0,5,9V44a4,4,0,0,0,4,4H39a4,4,0,0,0,4-4V9A4,4,0,0,0,39,5ZM16,6h3.83l2-2h4.34l2,2H32v4H16ZM39,44H9V9h3v5H36V9h3ZM26,7a2,2,0,1,1-2-2A2,2,0,0,1,26,7ZM16,38H36v4H12V16h4Zm4-16a4,4,0,1,1,4,4A4,4,0,0,1,20,22ZM30,36H18V32a4,4,0,0,1,4-4h4a4,4,0,0,1,4,4Z" fill="url(#New_Gradient_Swatch_5)"/></g></svg>